<mxfile host="app.diagrams.net" modified="2023-12-04T14:28:07.092Z" agent="Mozilla/5.0 (Windows NT 10.0; Win64; x64) AppleWebKit/537.36 (KHTML, like Gecko) Chrome/119.0.0.0 Safari/537.36" etag="A17wyDt6Fvue0iuuMjNV" version="22.1.5" type="device">
  <diagram name="StrÃ¡nka-1" id="iGHuUPok4tLbODIi34-8">
    <mxGraphModel dx="830" dy="303" grid="1" gridSize="10" guides="1" tooltips="1" connect="1" arrows="1" fold="1" page="1" pageScale="1" pageWidth="827" pageHeight="1169" math="0" shadow="0">
      <root>
        <mxCell id="0" />
        <mxCell id="1" parent="0" />
        <mxCell id="eOUWCwQJ3y1Rhs0LlXoM-1" value="Karta" style="whiteSpace=wrap;html=1;aspect=fixed;" vertex="1" parent="1">
          <mxGeometry x="80" y="80" width="80" height="80" as="geometry" />
        </mxCell>
        <mxCell id="eOUWCwQJ3y1Rhs0LlXoM-3" value="Hrac" style="ellipse;whiteSpace=wrap;html=1;aspect=fixed;" vertex="1" parent="1">
          <mxGeometry x="290" y="80" width="80" height="80" as="geometry" />
        </mxCell>
        <mxCell id="eOUWCwQJ3y1Rhs0LlXoM-4" value="Banker" style="rhombus;whiteSpace=wrap;html=1;" vertex="1" parent="1">
          <mxGeometry x="290" y="160" width="80" height="80" as="geometry" />
        </mxCell>
        <mxCell id="eOUWCwQJ3y1Rhs0LlXoM-10" value="2 karty (pote 1)" style="endArrow=classic;html=1;rounded=0;entryX=0;entryY=0.5;entryDx=0;entryDy=0;exitX=1;exitY=0.5;exitDx=0;exitDy=0;" edge="1" parent="1" source="eOUWCwQJ3y1Rhs0LlXoM-1" target="eOUWCwQJ3y1Rhs0LlXoM-3">
          <mxGeometry width="50" height="50" relative="1" as="geometry">
            <mxPoint x="180" y="120" as="sourcePoint" />
            <mxPoint x="230" y="70" as="targetPoint" />
          </mxGeometry>
        </mxCell>
        <mxCell id="eOUWCwQJ3y1Rhs0LlXoM-11" value="" style="endArrow=classic;html=1;rounded=0;entryX=0;entryY=0.5;entryDx=0;entryDy=0;" edge="1" parent="1" target="eOUWCwQJ3y1Rhs0LlXoM-4">
          <mxGeometry width="50" height="50" relative="1" as="geometry">
            <mxPoint x="170" y="120" as="sourcePoint" />
            <mxPoint x="210" y="70" as="targetPoint" />
            <Array as="points">
              <mxPoint x="170" y="200" />
            </Array>
          </mxGeometry>
        </mxCell>
        <mxCell id="eOUWCwQJ3y1Rhs0LlXoM-12" value="2 karty (pote 1)" style="edgeLabel;html=1;align=center;verticalAlign=middle;resizable=0;points=[];" vertex="1" connectable="0" parent="eOUWCwQJ3y1Rhs0LlXoM-11">
          <mxGeometry x="0.26" y="-1" relative="1" as="geometry">
            <mxPoint x="4" y="-1" as="offset" />
          </mxGeometry>
        </mxCell>
        <mxCell id="eOUWCwQJ3y1Rhs0LlXoM-13" value="" style="endArrow=classic;html=1;rounded=0;entryX=0.5;entryY=0;entryDx=0;entryDy=0;" edge="1" parent="1" target="eOUWCwQJ3y1Rhs0LlXoM-1">
          <mxGeometry width="50" height="50" relative="1" as="geometry">
            <mxPoint x="330" y="80" as="sourcePoint" />
            <mxPoint x="330" y="40" as="targetPoint" />
            <Array as="points">
              <mxPoint x="330" y="60" />
              <mxPoint x="120" y="60" />
            </Array>
          </mxGeometry>
        </mxCell>
        <mxCell id="eOUWCwQJ3y1Rhs0LlXoM-14" value="Hrac chce dalsi karty" style="edgeLabel;html=1;align=center;verticalAlign=middle;resizable=0;points=[];" vertex="1" connectable="0" parent="eOUWCwQJ3y1Rhs0LlXoM-13">
          <mxGeometry x="0.1936" y="-1" relative="1" as="geometry">
            <mxPoint as="offset" />
          </mxGeometry>
        </mxCell>
        <mxCell id="eOUWCwQJ3y1Rhs0LlXoM-15" value="" style="endArrow=classic;html=1;rounded=0;entryX=0.103;entryY=0.508;entryDx=0;entryDy=0;entryPerimeter=0;" edge="1" parent="1" target="eOUWCwQJ3y1Rhs0LlXoM-17">
          <mxGeometry width="50" height="50" relative="1" as="geometry">
            <mxPoint x="370" y="120" as="sourcePoint" />
            <mxPoint x="440" y="120" as="targetPoint" />
          </mxGeometry>
        </mxCell>
        <mxCell id="eOUWCwQJ3y1Rhs0LlXoM-18" value="Chce koncit&lt;br&gt;" style="edgeLabel;html=1;align=center;verticalAlign=middle;resizable=0;points=[];" vertex="1" connectable="0" parent="eOUWCwQJ3y1Rhs0LlXoM-15">
          <mxGeometry x="-0.0514" y="1" relative="1" as="geometry">
            <mxPoint as="offset" />
          </mxGeometry>
        </mxCell>
        <mxCell id="eOUWCwQJ3y1Rhs0LlXoM-16" value="" style="endArrow=classic;html=1;rounded=0;entryX=0.55;entryY=0.95;entryDx=0;entryDy=0;entryPerimeter=0;" edge="1" parent="1" target="eOUWCwQJ3y1Rhs0LlXoM-17">
          <mxGeometry width="50" height="50" relative="1" as="geometry">
            <mxPoint x="370" y="200" as="sourcePoint" />
            <mxPoint x="500" y="200" as="targetPoint" />
            <Array as="points">
              <mxPoint x="593" y="200" />
            </Array>
          </mxGeometry>
        </mxCell>
        <mxCell id="eOUWCwQJ3y1Rhs0LlXoM-19" value="Pokud konci hrac tak banker taky" style="edgeLabel;html=1;align=center;verticalAlign=middle;resizable=0;points=[];" vertex="1" connectable="0" parent="eOUWCwQJ3y1Rhs0LlXoM-16">
          <mxGeometry x="-0.0489" y="-1" relative="1" as="geometry">
            <mxPoint x="-24" y="-1" as="offset" />
          </mxGeometry>
        </mxCell>
        <mxCell id="eOUWCwQJ3y1Rhs0LlXoM-17" value="Pocitam kdo ma vetsi hodnotu karet" style="ellipse;shape=cloud;whiteSpace=wrap;html=1;" vertex="1" parent="1">
          <mxGeometry x="510" y="70" width="150" height="100" as="geometry" />
        </mxCell>
      </root>
    </mxGraphModel>
  </diagram>
</mxfile>
